<svg xmlns="http://www.w3.org/2000/svg" viewBox="0 0 376.51 161"><defs><style>.cls-1{fill:#e50914;}.cls-2,.cls-4,.cls-5,.cls-6,.cls-7{fill:none;stroke:#fff;stroke-miterlimit:10;}.cls-2{stroke-width:6px;}.cls-3,.cls-8{fill:#fff;}.cls-4,.cls-5,.cls-6,.cls-7{stroke-linecap:round;}.cls-4{stroke-width:12px;}.cls-5{stroke-width:11.33px;}.cls-6{stroke-width:10.67px;}.cls-7{stroke-width:10px;}.cls-8{font-size:50.07px;font-family:Impact;}</style></defs><title>Asset 1</title><g id="Layer_2" data-name="Layer 2"><g id="Layer_1-2" data-name="Layer 1"><path class="cls-1" d="M227.7,46c-.85-21-17.1-44.31-38.08-45.87S141.42,16.42,136,38.18C130.54,16.42,103.32-1.46,82.34.09S45.11,24.94,44.26,46C41.92,103.48,136,161,136,161S230,103.48,227.7,46Z"/><polyline class="cls-2" points="34.54 91.72 89.9 91.72 99.59 76.95 105.82 100.27 116.89 59.07 126.58 111.93 134.88 91.72 325.93 91.72"/><path class="cls-3" d="M35.75,91.27A11.66,11.66,0,0,1,24.09,103H1.68A1.68,1.68,0,0,1,0,101.31H0a1.69,1.69,0,0,1,1.68-1.69H19.77a1.54,1.54,0,0,0,1.55-1.55h0a1.54,1.54,0,0,0-1.55-1.55H1.68A1.69,1.69,0,0,1,0,94.83v-.26a1.68,1.68,0,0,1,1.68-1.68H19.77a1.55,1.55,0,0,0,1.55-1.56h0a1.55,1.55,0,0,0-1.55-1.56H1.68A1.68,1.68,0,0,1,0,88.09v-.26a1.69,1.69,0,0,1,1.68-1.69H19.77a1.54,1.54,0,0,0,1.55-1.55h0A1.54,1.54,0,0,0,19.77,83H1.68A1.69,1.69,0,0,1,0,81.35H0a1.68,1.68,0,0,1,1.68-1.68H23.8A11.85,11.85,0,0,1,35.75,91.27Z"/><line class="cls-4" x1="325.51" y1="50.11" x2="325.51" y2="133.5"/><line class="cls-5" x1="340.85" y1="60.76" x2="340.85" y2="124.68"/><line class="cls-6" x1="356.18" y1="71.41" x2="356.18" y2="115.86"/><line class="cls-7" x1="371.51" y1="82.05" x2="371.51" y2="107.04"/><text class="cls-8" transform="translate(234.32 85.67) scale(0.49 1)">360 FIT</text></g></g></svg>