<svg xmlns="http://www.w3.org/2000/svg" xmlns:xlink="http://www.w3.org/1999/xlink" version="1.1" x="0px" y="0px" viewBox="0 0 512 640" style="enable-background:new 0 0 512 512;" xml:space="preserve"><g><g><g><g><path d="M131,131H72.982l1.89,12.285c6.038,39.248,33.243,72.069,70.209,85.537c-0.07-0.501-0.143-1.002-0.206-1.506      c-0.005-0.043-0.01-0.085-0.014-0.128l-9.719-98.387C134.244,130.127,132.724,131,131,131z"/><path d="M232.78,195.01l-9.444,29.066l24.726-17.963c0.876-0.637,1.907-0.955,2.938-0.955s2.063,0.318,2.938,0.955      l24.726,17.964l-9.443-29.067c-0.67-2.06,0.063-4.317,1.816-5.59l24.725-17.964h-30.563c-2.166,0-4.086-1.395-4.755-3.455      L251,138.935l-9.444,29.066c-0.669,2.06-2.589,3.455-4.755,3.455h-30.562l24.725,17.964      C232.716,190.693,233.45,192.95,232.78,195.01z"/><path d="M251,311c48.771,0,90.114-36.477,96.193-84.861L360.542,91H211c-2.761,0-5-2.239-5-5s2.239-5,5-5h150.53l3.951-40      H136.518l18.288,185.139C160.886,274.522,202.229,311,251,311z M190.85,161.456h42.317l13.077-40.247      c0.669-2.06,2.589-3.455,4.755-3.455s4.086,1.395,4.755,3.455l13.077,40.247h42.318c2.166,0,4.086,1.395,4.755,3.455      c0.67,2.06-0.063,4.317-1.816,5.59l-34.235,24.874l13.076,40.247c0.67,2.06-0.063,4.317-1.816,5.59      c-0.876,0.637-1.907,0.955-2.938,0.955s-2.063-0.318-2.938-0.955L251,216.338l-34.236,24.874c-1.752,1.273-4.125,1.273-5.878,0      c-1.752-1.273-2.486-3.53-1.816-5.59l13.077-40.247l-34.236-24.874c-1.752-1.273-2.486-3.53-1.816-5.59      S188.684,161.456,190.85,161.456z M177.46,82.46c0.93-0.93,2.22-1.46,3.54-1.46c1.32,0,2.61,0.53,3.54,1.46      C185.47,83.4,186,84.68,186,86c0,1.32-0.53,2.6-1.46,3.53C183.61,90.47,182.32,91,181,91c-1.32,0-2.61-0.53-3.54-1.47      C176.53,88.6,176,87.32,176,86C176,84.68,176.53,83.39,177.46,82.46z"/><path d="M131,121c1.371,0,2.612,0.554,3.515,1.448l-3.11-31.489C131.269,90.97,131.139,91,131,91H66.828l4.615,30H131z"/><path d="M357.124,227.315c-0.063,0.504-0.137,1.005-0.206,1.506c36.967-13.468,64.172-46.289,70.211-85.537l1.89-12.285H371      c-1.724,0-3.244-0.873-4.143-2.2l-9.719,98.387C357.135,227.23,357.13,227.272,357.124,227.315z"/><path d="M86,351c0-5.514-4.486-10-10-10s-10,4.486-10,10s4.486,10,10,10S86,356.514,86,351z"/><path d="M430.557,121l4.615-30h-64.581l-3.106,31.448c0.903-0.894,2.145-1.448,3.516-1.448H430.557z"/><path d="M301,351c8.271,0,15-6.729,15-15s-6.729-15-15-15H201c-8.271,0-15,6.729-15,15s6.729,15,15,15H301z"/><path d="M436,391c-5.514,0-10,4.486-10,10s4.486,10,10,10s10-4.486,10-10S441.514,391,436,391z"/><path d="M146.356,431h209.288c-2.434-16.939-17.042-30-34.644-30h-70c-2.762,0-5-2.238-5-5s2.238-5,5-5h50.014      c-3.146-4.182-5.014-9.376-5.014-15v-15h-90v15c0,13.785-11.215,25-25,25C163.398,401,148.79,414.061,146.356,431z"/><path d="M386,281c0,11.028,8.972,20,20,20s20-8.972,20-20s-8.972-20-20-20S386,269.972,386,281z"/><path d="M391,441h-30H141h-30c-17.602,0-32.21,13.061-34.644,30h349.288C423.21,454.061,408.602,441,391,441z"/></g></g></g></g></svg>