<svg xmlns="http://www.w3.org/2000/svg" xmlns:xlink="http://www.w3.org/1999/xlink" version="1.1" x="0px" y="0px" viewBox="0 0 128 160" style="enable-background:new 0 0 128 128;" xml:space="preserve"><path d="M67.364296,85.6176987l0.759201,0.5595016l0.3345032-0.8374023c0.4027939-1.0083008,1.5380936-1.5112,2.555191-1.1323013  l0.948204,0.3530045l0.0844955-0.8325043c0.1108017-1.0917969,1.0767059-1.8852005,2.1733017-1.7894974l0.9864044,0.091301  l-0.1285019-0.7826996c-0.0864029-0.5273972,0.0416031-1.0673981,0.3554993-1.4995041  c0.314003-0.4321976,0.7875977-0.7206955,1.3154068-0.801796l0.9042969-0.1381989l-0.3422012-0.7934036  c-0.4356003-1.0107956,0.027298-2.1836014,1.0360947-2.6240997l0.8613052-0.3763962l-0.5390015-0.6846008  c-0.6801987-0.8638-0.5356979-2.1143036,0.3231964-2.8003006l0.7388-0.589798l-0.6996994-0.5230026  c-0.8798981-0.658699-1.0639954-1.903801-0.4116974-2.7885971l0.5600967-0.759201l-0.8378983-0.3345032  c-1.0087967-0.4028015-1.5116959-1.5371017-1.1327972-2.5551987l0.3539963-0.9501991l-0.832489-0.0848999  c-1.0913086-0.1119003-1.8892059-1.0811005-1.7886124-2.1729012l0.0908051-0.9878006l-0.7811966,0.1283989  c-0.5308075,0.0839996-1.0684052-0.0415001-1.5-0.3554001c-0.4322052-0.3139992-0.7212067-0.7875977-0.8018036-1.3159981  l-0.1381989-0.9033012l-0.7915039,0.3418007c-1.0131989,0.4361-2.184494-0.0267982-2.6254959-1.0365982l-0.3754044-0.860302  l-0.5410995,0.4262009c-0.8304901,0.653801-2.0253983,0.5484009-2.7294922-0.2392006l-0.7251053-0.8115997l-0.5981026,0.8003006  c-0.6576996,0.8824005-1.9042969,1.0663986-2.7899971,0.4116974l-0.7577972-0.559597l-0.3355026,0.838398  c-0.4028015,1.0073013-1.536602,1.5097008-2.554203,1.1318016l-0.9487-0.3530006l-0.0844994,0.8320007  c-0.1107979,1.0923004-1.0853996,1.8848-2.1737976,1.7896004l-0.9859009-0.0914001l0.1284981,0.782299  c0.0864029,0.5273018-0.0415993,1.0668983-0.3549995,1.4990005c-0.3139992,0.4325981-0.7875977,0.721199-1.3154984,0.8022003  l-0.9047012,0.1386986l0.3432007,0.796402c0.4351044,1.0102959-0.0267982,2.1821022-1.0345993,2.6235008l-0.8647995,0.3784943  l0.5370979,0.680603c0.6812019,0.8638,0.5371017,2.1156998-0.3227005,2.8018036l-0.7358932,0.5878983l0.6991959,0.5233994  c0.8798981,0.6581955,1.0634995,1.9032974,0.4116974,2.7875977l-0.5606003,0.760704l0.8389015,0.335495  c1.0088043,0.4028015,1.5112,1.5371017,1.1318054,2.5547028l-0.3530006,0.9487l0.8314934,0.0845032  c1.091301,0.1112976,1.8897018,1.0804977,1.7891006,2.1727982l-0.0907974,0.9878006l0.7812042-0.1284027  c0.5287933-0.0864029,1.0673943,0.0410004,1.5,0.3554993c0.4321938,0.3139038,0.7211952,0.7881012,0.801796,1.3159027  l0.1382027,0.903801l0.7914963-0.3418045c1.0116997-0.4346008,2.1849976,0.0269012,2.6255035,1.0366058l0.3758965,0.8613968  l0.6835976-0.5385971c0.366703-0.2886047,0.802803-0.4287033,1.2359009-0.4287033  c0.5883026,0,1.1704025,0.2577972,1.5653992,0.7528992l0.5863991,0.7362976l0.5220032-0.6981964  C65.2333908,85.1483994,66.4804916,84.964798,67.364296,85.6176987z M64,81.7080002  c-5.9141045,0-10.7080002-4.7938995-10.7080002-10.7080002S58.0858955,60.2919998,64,60.2919998  c5.914093,0,10.7080002,4.7938995,10.7080002,10.7080002S69.914093,81.7080002,64,81.7080002z"/><path d="M36.0395966,114h56.0682983c0.9272995-3.1791992,3.5424957-8.2695007,10.8921051-10.3784027V24.3778992  C95.6508942,22.2689991,93.0346909,17.1786995,92.1078949,14H36.0395966C34.2060966,19.2689991,30.2650948,23.0126991,25,24.4951  v79.0097961C30.2641964,104.9862976,34.2040939,108.7289963,36.0395966,114z M56.745594,108.283699  C56.2431946,109.4150009,55.4301949,110,54.5624962,110c-0.6772003,0-1.3877029-0.3554993-2.0107002-1.0854034l-3.2607956-5.2065964  l-5.6777039,0.9810028c-0.0186005,0.0004959-0.0376015,0.0004959-0.0557022,0.0004959  c-2.120594,0-3.1210976-1.5991974-2.2343979-3.5952988l5.3622971-12.0771027  c0.7666016,0.7026062,1.690506,1.1875,2.6783028,1.419899c0.1849976,0.331604,0.4120979,0.6367035,0.6562042,0.9273071  l-3.9233055,8.8363953l2.5131989-0.4340973c0.2280006-0.039505,0.4560013-0.0586014,0.682106-0.0586014  c1.3612938,0,2.6498947,0.6962967,3.3891945,1.8769989l1.5576019,2.4868011l3.9062042-8.7974014  c0.9472961,0.1660004,1.9120941,0.1166992,2.8158951-0.1640015c0.4253006,0.2617035,0.8852997,0.4619064,1.3628006,0.6103058  L56.745594,108.283699z M64.1044922,92c-0.6083984,0-1.1840973-0.2769012-1.5639992-0.7528992l-0.9618988-1.2070999  l-1.1567001,0.9106979c-0.4864006,0.3828049-1.1236,0.5190048-1.7245979,0.3685989  c-0.6011009-0.1512985-1.0982018-0.572197-1.3457031-1.1400986l-0.6147995-1.4092026l-1.3412971,0.5791016  c-0.5688019,0.2451019-1.2192001,0.2134018-1.7616997-0.0868988c-0.5420036-0.3003006-0.9141006-0.8349991-1.0077972-1.4472961  l-0.2237053-1.4648056l-1.3387985,0.2201996c-0.6118011,0.1006012-1.233902-0.0878983-1.6874962-0.5097961  c-0.4536057-0.4223022-0.6856041-1.0302048-0.6289063-1.646904l0.1465034-1.5923004l-1.4355965-0.1464996  c-0.6162033-0.0629959-1.1684036-0.4076996-1.4956055-0.9335938c-0.3270988-0.5259018-0.3921013-1.1738052-0.1758003-1.7539063  l0.5746994-1.5434952l-1.4286995-0.5712051c-0.5751991-0.2294998-1.0112-0.7128983-1.1810989-1.3085938  c-0.170002-0.5957031-0.0541992-1.2364044,0.3134003-1.7349014l0.9179993-1.2455978l-1.1810989-0.8843002  C43.3056946,72.3281021,43.0097961,71.748497,43,71.1294022c-0.009304-0.6191025,0.2685966-1.2080002,0.7523956-1.5942001  L44.9564934,68.5737l-0.9085999-1.1512985c-0.3837967-0.4864044-0.5200996-1.1231003-0.3701973-1.724205  c0.1503983-0.6009979,0.5708008-1.0980988,1.1381989-1.3465958l1.4146004-0.6197014l-0.5806007-1.3465996  c-0.2450981-0.5689011-0.2128944-1.2187996,0.0873985-1.7607994c0.3003006-0.5415001,0.8345032-0.9141006,1.4463005-1.0078011  l1.4643021-0.2240982L48.4276962,58.0513c-0.1001015-0.6114006,0.088398-1.2344017,0.5103035-1.6875  c0.4223938-0.4532013,1.0272942-0.6817017,1.6473961-0.6283989l1.5893974,0.1469002L52.3207932,54.4473  c0.0625-0.6161995,0.4072075-1.168499,0.9331017-1.4961014c0.5259018-0.3276978,1.1748009-0.3915977,1.7538986-0.1763  l1.5444031,0.5747032l0.5723-1.4307022c0.2299995-0.5750999,0.7138977-1.0112,1.309597-1.1810989  c0.5957031-0.171402,1.2363014-0.0536995,1.735302,0.3148994l1.2416992,0.9169998L62.2831955,50.8027  c0.3593979-0.4804001,0.9155006-0.7748985,1.514698-0.8007011c0.6093025-0.0298004,1.179203,0.2182007,1.5791054,0.6660004  l1.1019974,1.233902l1.0985947-0.8658028c0.4869003-0.3837967,1.1236038-0.5170975,1.7251053-0.3685989  c0.6006012,0.1509018,1.097702,0.5722008,1.3456955,1.1400986l0.6147995,1.4087029l1.341301-0.5786018  c0.5693054-0.2460976,1.2192001-0.2138977,1.7617035,0.0869026c0.5419998,0.3002968,0.9141006,0.8349991,1.0078049,1.4473  l0.2236938,1.4637985l1.3387985-0.2201996c0.6138-0.0986023,1.2343979,0.088398,1.6875076,0.5098  c0.4535904,0.4223976,0.6855927,1.0303001,0.628891,1.6469994l-0.1468887,1.5932007l1.4364929,0.1464996  c0.6161957,0.0629997,1.168396,0.4076996,1.4951019,0.9336014c0.327095,0.525898,0.3920975,1.1737976,0.1763,1.7538986  l-0.5752029,1.5439987L83.0668945,64.1138c0.5752029,0.2300034,1.0116959,0.7133026,1.1816025,1.3090973  c0.1699982,0.5957031,0.0541992,1.2363052-0.3134003,1.7353058l-0.9179993,1.2445984l1.1810989,0.8833008  c0.4955978,0.3711014,0.7919998,0.9506989,0.8013,1.5702972c0.0097961,0.6192017-0.267601,1.2076035-0.7514954,1.5942993  l-1.2080002,0.9643021l0.9111938,1.1577988c0.3833008,0.4868011,0.5195007,1.123497,0.3685989,1.7240982  c-0.1509018,0.6010056-0.5717926,1.0976028-1.1390991,1.3457031l-1.4096909,0.6161957l0.5790939,1.342804  c0.2450943,0.5688019,0.2129059,1.2192001-0.0874023,1.7606964c-0.3003006,0.5419998-0.8349991,0.9141006-1.4468002,1.0078049  l-1.4637985,0.2240982l0.2201996,1.3404007c0.1000977,0.6112976-0.0878983,1.2342987-0.5102997,1.6875  c-0.421402,0.453598-1.0278015,0.6845016-1.6469955,0.6284027l-1.5898056-0.1470032l-0.1460037,1.4369965  c-0.0625,0.6162033-0.4071884,1.1690063-0.9330978,1.4961014c-0.5263977,0.3272018-1.1743011,0.391098-1.7544022,0.1763  l-1.5438995-0.5751953l-0.5703964,1.4281998c-0.2299042,0.5751953-0.7133026,1.0116959-1.3095016,1.1811981  c-0.5948029,0.169899-1.2353973,0.0550995-1.7348938-0.314003l-1.2436066-0.9169998l-0.8828964,1.1812057  C65.3353958,91.6938019,64.755394,91.9901962,64.1356964,92C64.1254959,92,64.1146927,92,64.1044922,92z M83.4423904,104.6894989  c-0.0180969,0-0.0370941,0-0.0556946-0.0004959l-5.6776962-0.9810028l-3.2608032,5.2065964  C73.8251953,109.6445007,73.1146927,110,72.4374924,110c-0.8676987,0-1.6806946-0.5849991-2.1830978-1.716301l-5.4760971-12.3339996  c0.9048004-0.1019974,1.7695999-0.3964996,2.5282974-0.8754959c0.5083008,0.1503983,1.035202,0.2276001,1.5664063,0.2406998  l3.8881912,8.7574005l1.5576019-2.4873047c0.7393036-1.1807022,2.0279007-1.8769989,3.3892059-1.8769989  c0.2260971,0,0.4540939,0.0190964,0.6820908,0.0586014l2.5127029,0.4340973l-3.5932007-8.0927963  c0.7182007-0.544899,1.3066025-1.2313995,1.7128983-2.0205002c0.5258026-0.1284027,1.028801-0.3339996,1.5014038-0.5980988  l5.1529007,11.6048965C86.5634918,103.0903015,85.5630035,104.6894989,83.4423904,104.6894989z M43,18h42  c1.1044922,0,2,0.8955002,2,2s-0.8955078,2-2,2H43c-1.1045036,0-2-0.8955002-2-2S41.8954964,18,43,18z M43,26h42  c1.1044922,0,2,0.8955002,2,2s-0.8955078,2-2,2H43c-1.1045036,0-2-0.8955002-2-2S41.8954964,26,43,26z M43,34h42  c1.1044922,0,2,0.8955002,2,2s-0.8955078,2-2,2H43c-1.1045036,0-2-0.8955002-2-2S41.8954964,34,43,34z M43,42h42  c1.1044922,0,2,0.8955002,2,2s-0.8955078,2-2,2H43c-1.1045036,0-2-0.8955002-2-2S41.8954964,42,43,42z"/><circle cx="64" cy="71" r="6.7080002"/><path d="M19,128h90c4.3998947,0,8-3.6000977,8-8V8c0-4.3999-3.6001053-8-8-8H19c-4.3999043,0-8,3.6001-8,8v112  C11,124.3999023,14.6000957,128,19,128z M21,22.9750996c0-1.0229988,0.8612957-1.8745003,1.8939991-2.0834999  c2.7665958-0.5604992,7.7836971-2.4839001,9.6425953-9.0810995C32.8158951,10.8237,33.8007965,10,34.8554955,10h58.7665977  c1.0550995,0,1.8920975,0.8353996,2.0781021,1.8432999c0.4878082,2.6410999,2.3559952,7.3617992,9.4193954,8.9491997  C106.1488953,21.0233994,107,21.9521008,107,22.9750996v82.0498047c0,1.022995-0.8511047,1.9516983-1.8804092,2.1820984  c-7.0634003,1.5878983-8.9315872,6.3086014-9.4193954,8.9496994C95.5141907,117.1645966,94.6771927,118,93.6220932,118H34.8554955  c-1.0546989,0-2.0396004-0.8237-2.3189011-1.8105011c-1.8588982-6.5971985-6.8759995-8.5205994-9.6425953-9.0811005  C21.8612957,106.8989029,21,106.0478973,21,105.0249023V22.9750996z"/></svg>