<svg xmlns="http://www.w3.org/2000/svg" viewBox="0 0 378.51 162.09"><defs><style>.cls-1{fill:#e50914;stroke:#e50914;}.cls-1,.cls-2,.cls-4,.cls-5,.cls-6,.cls-7{stroke-miterlimit:10;}.cls-2,.cls-4,.cls-5,.cls-6,.cls-7{fill:none;stroke:#050e32;}.cls-2{stroke-width:6px;}.cls-3,.cls-8{fill:#050e32;}.cls-4,.cls-5,.cls-6,.cls-7{stroke-linecap:round;}.cls-4{stroke-width:12px;}.cls-5{stroke-width:11.33px;}.cls-6{stroke-width:10.67px;}.cls-7{stroke-width:10px;}.cls-8{font-size:50.07px;font-family:Impact;}</style></defs><title>Asset 1</title><g id="Layer_2" data-name="Layer 2"><g id="Layer_1-2" data-name="Layer 1"><path class="cls-1" d="M227.7,46.46c-.85-21-17.1-44.31-38.08-45.87S141.42,16.92,136,38.68C130.54,16.92,103.32-1,82.34.59S45.11,25.44,44.26,46.46C41.92,104,136,161.5,136,161.5S230,104,227.7,46.46Z"/><polyline class="cls-2" points="34.54 87.22 96.72 87.22 107.61 72.45 114.6 95.77 127.04 54.57 137.92 107.43 147.25 87.22 327.93 87.61"/><path class="cls-3" d="M35.75,86.77A11.66,11.66,0,0,1,24.09,98.49H1.68A1.68,1.68,0,0,1,0,96.81H0a1.69,1.69,0,0,1,1.68-1.69H19.77a1.54,1.54,0,0,0,1.55-1.55h0A1.54,1.54,0,0,0,19.77,92H1.68A1.69,1.69,0,0,1,0,90.33v-.26a1.68,1.68,0,0,1,1.68-1.68H19.77a1.55,1.55,0,0,0,1.55-1.56h0a1.55,1.55,0,0,0-1.55-1.56H1.68A1.68,1.68,0,0,1,0,83.59v-.26a1.69,1.69,0,0,1,1.68-1.69H19.77a1.54,1.54,0,0,0,1.55-1.55h0a1.54,1.54,0,0,0-1.55-1.55H1.68A1.69,1.69,0,0,1,0,76.85H0a1.68,1.68,0,0,1,1.68-1.68H23.8A11.85,11.85,0,0,1,35.75,86.77Z"/><line class="cls-4" x1="327.51" y1="46.61" x2="327.51" y2="130"/><line class="cls-5" x1="342.85" y1="57.26" x2="342.85" y2="121.18"/><line class="cls-6" x1="358.18" y1="67.91" x2="358.18" y2="112.36"/><line class="cls-7" x1="373.51" y1="78.55" x2="373.51" y2="103.54"/><text class="cls-8" transform="translate(234.32 82.17) scale(0.49 1)">360 FIT</text></g></g></svg>