<svg xmlns="http://www.w3.org/2000/svg" xmlns:xlink="http://www.w3.org/1999/xlink" version="1.1" x="0px" y="0px" viewBox="0 0 169.108 301.87874999999997" style="enable-background:new 0 0 169.108 241.503;" xml:space="preserve"><g><ellipse transform="matrix(0.2268 -0.9739 0.9739 0.2268 0.5702 133.8045)" cx="84.555" cy="66.543" rx="22.495" ry="22.495"/><path d="M117.032,167.322c-1.88-1.243-3.693-2.366-5.432-3.385v-59.687c1.767-2.168,4.454-5.802,7.155-10.767   c4.406-8.111,8.856-19.87,8.861-34.315c0.043-16.397-5.913-35.946-22.856-56.278c-2.822-3.399-7.864-3.867-11.265-1.046   c-3.399,2.824-3.867,7.866-1.043,11.266c14.913,18.036,19.121,33.459,19.164,46.059c0.004,11.103-3.435,20.261-6.919,26.679   c-1.702,3.133-3.401,5.584-4.657,7.228H69.069c-1.336-1.749-3.178-4.411-4.983-7.835c-3.371-6.387-6.598-15.313-6.593-26.072   c0.042-12.601,4.249-28.021,19.166-46.057c2.822-3.399,2.354-8.444-1.045-11.266C72.214-0.977,67.171-0.51,64.347,2.89   C47.403,23.224,41.448,42.771,41.491,59.168c0.004,14.447,4.455,26.204,8.861,34.316c2.701,4.968,5.39,8.602,7.157,10.769v59.684   c-1.739,1.018-3.552,2.142-5.433,3.385c-14.741,9.731-33.401,26.715-50.327,55.306c-3.521,5.939-1.559,13.607,4.38,17.127   c1.999,1.184,4.195,1.748,6.361,1.748c4.271,0,8.431-2.189,10.766-6.128c15.074-25.411,30.881-39.428,42.609-47.197   c5.866-3.878,10.722-6.182,13.967-7.488c1.622-0.651,2.84-1.054,3.575-1.276c0.368-0.11,0.614-0.178,0.732-0.208   c0.008-0.002,0.015-0.004,0.021-0.005c0.134-0.03,0.262-0.075,0.394-0.109c0.137,0.035,0.268,0.082,0.406,0.112   c0.154,0.039,0.581,0.152,1.292,0.382c6.416,2.161,34.035,12.794,59.599,55.788c2.335,3.94,6.496,6.131,10.767,6.131   c2.167,0,4.361-0.563,6.36-1.748c5.938-3.52,7.899-11.188,4.382-17.127C150.433,194.037,131.774,177.051,117.032,167.322z"/></g></svg>