<svg xmlns="http://www.w3.org/2000/svg" viewBox="0 0 512 640" x="0px" y="0px"><g><path d="M240,448V288H64V448H80V328a8,8,0,0,1,8-8H216a8,8,0,0,1,8,8V448Z"/><path d="M132,176H380a4,4,0,0,0,4-4V36a4,4,0,0,0-4-4H132a4,4,0,0,0-4,4V172A4,4,0,0,0,132,176Zm12-92a20.023,20.023,0,0,1,20-20h8a19.991,19.991,0,0,1,4.329.485A20.018,20.018,0,0,1,196,48h8a20.023,20.023,0,0,1,20,20V80h64V68a20.023,20.023,0,0,1,20-20h8a20.018,20.018,0,0,1,19.671,16.485A19.991,19.991,0,0,1,340,64h8a20.023,20.023,0,0,1,20,20v40a20.023,20.023,0,0,1-20,20h-8a19.991,19.991,0,0,1-4.329-.485A20.018,20.018,0,0,1,316,160h-8a20.023,20.023,0,0,1-20-20V128H224v12a20.023,20.023,0,0,1-20,20h-8a20.018,20.018,0,0,1-19.671-16.485A19.991,19.991,0,0,1,172,144h-8a20.023,20.023,0,0,1-20-20Z"/><path d="M448,132a12.013,12.013,0,0,0-12-12H400v52a20.023,20.023,0,0,1-20,20H132a20.023,20.023,0,0,1-20-20V120H76a12.013,12.013,0,0,0-12,12v76H448Z"/><rect x="48" y="464" width="416" height="16"/><rect x="160" y="80" width="16" height="48" rx="4" ry="4"/><rect x="336" y="80" width="16" height="48" rx="4" ry="4"/><path d="M308,144h8a4,4,0,0,0,4-4V68a4,4,0,0,0-4-4h-8a4,4,0,0,0-4,4v72A4,4,0,0,0,308,144Z"/><rect x="224" y="96" width="64" height="16"/><path d="M196,144h8a4,4,0,0,0,4-4V68a4,4,0,0,0-4-4h-8a4,4,0,0,0-4,4v72A4,4,0,0,0,196,144Z"/><path d="M144,448V336H96V448Zm-32-72h16v16H112Z"/><path d="M376,432H318.624a23.944,23.944,0,0,1,0,16h66.752a23.944,23.944,0,0,1,0-16Z"/><path d="M385.758,416H400V373.417l-24-9.6v7.24l11.578,5.789a8,8,0,0,1,4.267,8.724Z"/><circle cx="408" cy="440" r="8"/><circle cx="296" cy="440" r="8"/><rect x="48" y="224" width="416" height="48"/><path d="M208,448V336H160V448Zm-32-72h16v16H176Z"/><path d="M448,448V288H256V448h17.376A23.992,23.992,0,0,1,296,416h73.442l5.515-27.577-10.535-5.268A8,8,0,0,1,360,376V352a8,8,0,0,1,10.971-7.428l40,16A8,8,0,0,1,416,368v49.376A23.985,23.985,0,0,1,430.624,448Z"/></g></svg>