<svg xmlns="http://www.w3.org/2000/svg" xmlns:xlink="http://www.w3.org/1999/xlink" version="1.1" x="0px" y="0px" viewBox="0 0 66 82.5" enable-background="new 0 0 66 66" xml:space="preserve"><g><path d="M45.7,18.1c1-0.2,1.6-1.1,1.5-2.1l-1-10.1h-4l0.9,8.7l-4.7,1.1c0.9,1,1.4,2.3,1.6,3.7L45.7,18.1z"/><path d="M40,6.4c0.7,0,1.2-0.6,1.4-1.5h5.4c0.2,0.9,0.8,1.5,1.4,1.5c0.9,0,1.5-1.1,1.5-2.4c0-1.3-0.7-2.4-1.5-2.4   c-0.7,0-1.2,0.6-1.4,1.5h-5.4c-0.2-0.9-0.8-1.5-1.4-1.5c-0.9,0-1.5,1.1-1.5,2.4C38.5,5.3,39.2,6.4,40,6.4z"/><path d="M5.8,55.9c-1,0-1.8,0.8-1.8,1.8s0.8,1.8,1.8,1.8h17.1c0-0.2,0,0,1.4-3.5H5.8z"/><path d="M60.2,55.9H32.9l-1.4,3.5h28.7c1,0,1.8-0.8,1.8-1.8S61.2,55.9,60.2,55.9z"/><polygon points="6.5,64.4 11.3,64.4 12.9,59.4 8.1,59.4  "/><polygon points="53.1,59.4 54.7,64.4 59.5,64.4 57.9,59.4  "/><path d="M31.6,13.4c3.2,0,5.8-2.6,5.8-5.8c0-3.2-2.6-5.8-5.8-5.8c-3.2,0-5.8,2.6-5.8,5.8C25.8,10.8,28.4,13.4,31.6,13.4z"/><path d="M34.3,49l0.4-9l1.8,3.1l1.4,9.9c0.6,4,6.5,3.1,5.9-0.8l-1.5-10.5c-0.1-0.4-0.2-0.8-0.4-1.1l-2.6-4.4   c0.3-0.8,0.5-1.6,0.4-2.5L39,19.8c-0.2-3.3-3-5.8-6.3-5.6c-2.2,0.1-4,1.4-5,3.2l-5.6,6.3c-0.3,0.4-0.5,0.9-0.5,1.4L22,34   c0,1.1,0.9,1.9,2,1.9c0,0,0,0,0.1,0c1.1,0,2-1,1.9-2.1l-0.3-8.1l1.5-1.8l0.6,9.7c0.2,0,0.4,0,0.5,0c2,0.1,3,3.1,1.9,5.2   c-0.4,0.7-0.9,1.3-1.6,1.5l-0.3,7.9l-4.4,11.3c-0.6,1.5,0.2,3.3,1.7,3.9c1.5,0.6,3.3-0.1,3.9-1.7l4.6-11.7   C34.2,49.6,34.3,49.3,34.3,49z"/><path d="M19.6,38.9c0.7,0,1.3-0.6,1.5-1.4l5.4,0.3c0.2,0.9,0.7,1.6,1.3,1.6c1.5,0.1,2.3-3,1.1-4.3c-0.2-0.3-0.5-0.4-0.8-0.4   c-0.5,0-1.2,0.4-1.5,1.4l-0.7,0c-0.5,0.5-1.2,0.8-2,0.8H24c-0.9,0-1.8-0.4-2.3-1.1l-0.4,0c-0.2-0.9-0.7-1.6-1.4-1.6   c-0.8,0-1.6,1-1.7,2.3C18.2,37.8,18.8,38.9,19.6,38.9z"/></g></svg>