<svg xmlns="http://www.w3.org/2000/svg" xmlns:xlink="http://www.w3.org/1999/xlink" version="1.1" x="0px" y="0px" viewBox="0 0 81.529 75.465" style="enable-background:new 0 0 81.529 60.372;" xml:space="preserve"><g><path d="M31.726,9.014C31.726,4.036,35.761,0,40.739,0c4.979,0,9.015,4.036,9.015,9.014c0,4.979-4.036,9.014-9.015,9.014   C35.761,18.028,31.726,13.992,31.726,9.014z M81.502,42.106c-0.303-2.882-2.055-4.229-3.594-4.528   c-1.032-0.201-1.915,0.078-2.252,0.711c-0.135,0.254-0.359,0.936,0.479,1.773c1.566,1.566,1.408,2.129,1.359,2.225   c-0.197,0.401-1.373,0.566-2.559,0.514c0.701-1.796,0.682-3.098-0.031-3.782c-0.596-0.573-2.998-1.116-4.039,2.749l-9.443-4.615   c-0.504-1.371-3.197-8.709-4.502-12.612c-1.375-4.116-4.537-4.184-7.326-4.245c-0.288-0.006-17.37-0.006-17.658,0   c-2.79,0.061-5.951,0.128-7.327,4.245c-1.305,3.903-3.998,11.241-4.501,12.612l-9.443,4.615c-0.247-0.885-0.791-2.297-1.859-2.945   c-0.643-0.391-1.952-0.49-2.576,0.256c-0.622,0.748-0.337,1.927,0.364,3.723c-1.186,0.053-2.36-0.112-2.559-0.514   c-0.047-0.096-0.207-0.658,1.36-2.225c0.837-0.838,0.613-1.52,0.478-1.773c-0.336-0.633-1.22-0.912-2.251-0.711   c-1.539,0.299-3.291,1.646-3.594,4.528c-0.152,1.452,0.319,2.709,1.365,3.634c1.309,1.158,3.479,1.761,6.082,1.761   c1.437,0,3.006-0.185,4.635-0.56c5.948-1.373,14.006-4.664,14.066-4.806l3.732-9.079l0.004,13.256H15.621   c-2.969,0-5.384,3.152-5.384,7.029s2.415,7.03,5.384,7.03l49.776-0.071c2.969,0,5.385-3.154,5.385-7.029   c0-3.877-2.416-7.031-5.385-7.031H51.622V33.057l3.93,9.079l0.06,0.142c13.14,5.755,18.443,5.224,18.443,5.224   c2.604,0.03,4.773-0.603,6.082-1.761C81.182,44.815,81.653,43.559,81.502,42.106z"/></g>
<text x="0" y="81" fill="#000000" font-size="5px" font-weight="bold" font-family="'Helvetica Neue', Helvetica, Arial-Unicode, Arial, Sans-serif">Created by ProSymbols</text><text x="0" y="86" fill="#000000" font-size="5px" font-weight="bold" font-family="'Helvetica Neue', Helvetica, Arial-Unicode, Arial, Sans-serif">from the Noun Project</text>
</svg>